# xmcd
#
# Track frame offsets:
#	150
#	20772
#	32355
#	47436
#	60808
#	78782
#	98358
#	112053
#	141383
#	153722
#	165013
#	178206
#	188206
#	204253
#	211598
#	228445
#	242746
#	250770
#
# Disc length: 3483 seconds
# Revision: 0
# Processed by: cddbd v1.5.2PL0 Copyright (c) Steve Scherf et al.
# Submitted via: dBpowerAMP V12.0
#
DISCID=d80d9912
DTITLE=Norman Blake • Nancy Blake • Tut Taylor - Shacktown Road
DYEAR=2007
DGENRE=Country
TTITLE0=Shacktown Road
TTITLE1=Kindred Spirit
TTITLE2=Guitar Rag
TTITLE3=Not A Word From Home
TTITLE4=The Old Dobro Man
TTITLE5=Worried Blues
TTITLE6=Tom Scala's Waltz
TTITLE7=Lizzie Hubbard Blues
TTITLE8=Going To Georgia
TTITLE9=Ode To Bascom
TTITLE10=On the Banks of Lake Pontchatrain
TTITLE11=It Must Be Jelly
TTITLE12=The Tag Railroad Rag
TTITLE13=Running Wild
TTITLE14=Times Ain't Like They Used To Be
TTITLE15=End Of The World
TTITLE16=Steel Guitar Blues
TTITLE17=The Buffalo Left Yesterday
EXTD=
EXTT0=
EXTT1=
EXTT2=
EXTT3=
EXTT4=
EXTT5=
EXTT6=
EXTT7=
EXTT8=
EXTT9=
EXTT10=
EXTT11=
EXTT12=
EXTT13=
EXTT14=
EXTT15=
EXTT16=
EXTT17=
PLAYORDER=
